# 3ds Max Wavefront OBJ Exporter v0.97b - (c)2007 guruware
# File Created: 28.01.2019 11:37:53

mtllib obj.mtl

#
# object Object001
#

v  104.5398 3.8891 -39.1950
v  109.0430 -5.5403 -54.7673
v  98.2794 -5.5403 -74.1281
v  104.5398 3.8891 45.8256
v  96.0932 7.1894 60.2418
v  98.2795 -5.5403 80.7587
v  -107.5276 3.8891 45.8256
v  -112.0308 -5.5403 61.3978
v  -101.2672 -5.5403 80.7587
v  -107.5276 3.8891 -39.1950
v  -99.0810 7.1894 -53.6113
v  -101.2673 -5.5403 -74.1281
v  134.6396 -200.5189 -68.4055
v  121.3836 -200.5189 -92.3124
v  116.4986 -125.2803 -88.4259
v  129.2277 -125.2803 -65.4906
v  -119.4864 -125.2803 -88.4259
v  -137.6274 -200.5189 -68.4055
v  -136.4585 -125.2803 3.3153
v  -132.2155 -125.2803 -65.4906
v  -124.3714 -200.5189 -92.3124
v  96.0932 7.1894 -53.6113
v  -112.0308 -5.5403 -54.7673
v  -137.6274 -200.5189 75.0360
v  -124.3714 -200.5189 98.9430
v  -119.4864 -125.2803 95.0565
v  -132.2155 -125.2803 72.1212
v  116.4986 -125.2803 95.0565
v  134.6396 -200.5189 75.0360
v  133.4707 -125.2803 3.3153
v  129.2276 -125.2803 72.1212
v  121.3836 -200.5189 98.9430
v  -99.0810 7.1894 60.2418
v  109.0430 -5.5403 61.3978
v  95.3644 11.4326 3.3153
v  -98.3522 11.4326 3.3153
v  -109.6349 7.1894 3.3153
v  106.6471 7.1894 3.3153
v  -142.0461 -200.5189 3.3153
v  139.0583 -200.5189 3.3153
v  39.2479 465.8461 8.8363
v  -0.0000 473.8288 37.8401
v  19.9198 470.7419 37.8401
v  38.7822 462.1061 37.8401
v  -39.2649 467.7822 8.8363
v  -38.8016 463.9459 -20.1674
v  -73.7897 423.4492 -20.1674
v  -73.7897 423.4492 37.8401
v  -78.8104 0.2215 -11.1790
v  -79.6791 0.2215 8.8363
v  -78.8104 79.3322 28.8516
v  -79.6791 84.3376 8.8363
v  -56.2843 84.8061 41.3151
v  -76.2041 208.6284 37.8401
v  -69.4867 94.6689 40.4463
v  56.2843 0.2215 41.3151
v  69.4867 0.2215 40.4463
v  76.2041 208.4953 37.8401
v  55.5298 447.3474 37.8401
v  -76.2041 208.6284 -20.1674
v  -76.2041 75.4080 37.8401
v  -69.4867 0.2215 40.4463
v  -69.4867 79.0488 40.4463
v  -56.2843 0.2215 41.3151
v  -76.2041 0.2215 37.8401
v  76.2041 208.4953 -20.1674
v  56.2843 0.2215 -23.6424
v  -56.2843 0.2215 -23.6424
v  73.7121 423.1482 37.8401
v  19.9198 448.2380 41.3151
v  -38.8016 463.9459 37.8401
v  73.7121 423.1482 -20.1674
v  38.7822 462.1061 -20.1674
v  -19.9198 471.9406 -20.1674
v  0.0000 473.8288 -20.1674
v  19.9198 470.7419 -20.1674
v  19.9198 463.1707 -22.7737
v  69.4867 0.2215 -22.7737
v  76.2041 0.2215 -20.1674
v  -69.4867 0.2215 -22.7737
v  -76.2041 0.2215 -20.1674
v  -19.9198 471.9405 37.8401
v  19.9198 463.1707 40.4463
v  -78.8104 0.2215 28.8516
v  76.2041 0.2215 37.8401
v  78.8104 0.2215 28.8516
v  -19.9198 475.9111 8.8363
v  79.6791 0.2215 8.8363
v  78.8104 0.2215 -11.1790
# 89 vertices

vn 0.4618 0.8809 -0.1038
vn 0.5541 0.7734 -0.3080
vn 0.1257 0.8600 -0.4946
vn 0.8245 0.5525 0.1223
vn 0.7404 0.6036 0.2956
vn 0.8503 0.2740 0.4494
vn -0.4618 0.8809 0.1038
vn -0.5541 0.7734 0.3081
vn -0.1257 0.8600 0.4946
vn -0.8245 0.5525 -0.1223
vn -0.7404 0.6036 -0.2956
vn -0.8503 0.2740 -0.4494
vn 0.9562 0.0797 -0.2815
vn 0.8716 0.0816 -0.4833
vn 0.8665 0.1339 -0.4809
vn 0.9513 0.1310 -0.2791
vn 0.0068 0.1081 -0.9941
vn -0.0270 0.0699 -0.9972
vn -0.0145 0.0681 -0.9976
vn 0.0113 0.0877 -0.9961
vn -0.9562 0.0797 -0.2815
vn -0.9920 0.1266 0.0000
vn -0.9513 0.1310 -0.2791
vn -0.8665 0.1340 -0.4809
vn -0.8716 0.0816 -0.4833
vn 0.0000 0.0516 -0.9987
vn 0.0744 0.9569 -0.2809
vn -0.1257 0.8600 -0.4946
vn -0.0744 0.9569 -0.2809
vn -0.4618 0.8809 -0.1038
vn -0.5541 0.7734 -0.3080
vn 0.0000 0.1186 -0.9929
vn 0.9474 0.2316 -0.2208
vn 0.8502 0.2741 -0.4495
vn 0.8245 0.5525 -0.1223
vn 0.7404 0.6036 -0.2956
vn -0.9562 0.0797 0.2815
vn -0.8716 0.0816 0.4833
vn -0.8665 0.1339 0.4809
vn -0.9513 0.1310 0.2791
vn -0.0068 0.1081 0.9941
vn 0.0270 0.0699 0.9972
vn 0.0145 0.0681 0.9976
vn -0.0113 0.0877 0.9961
vn 0.9562 0.0797 0.2815
vn 0.9920 0.1266 0.0000
vn 0.9513 0.1310 0.2791
vn 0.8665 0.1340 0.4809
vn 0.8716 0.0816 0.4833
vn 0.0000 0.0516 0.9987
vn -0.0744 0.9569 0.2809
vn 0.1257 0.8600 0.4946
vn 0.0744 0.9569 0.2809
vn 0.4618 0.8809 0.1038
vn 0.5541 0.7734 0.3080
vn 0.0000 0.1186 0.9929
vn -0.9474 0.2316 0.2208
vn -0.8502 0.2741 0.4495
vn -0.8245 0.5525 0.1223
vn -0.7404 0.6036 0.2956
vn -0.9474 0.2316 -0.2209
vn 0.9474 0.2316 0.2209
vn 0.1835 0.9830 -0.0000
vn -0.1835 0.9830 0.0000
vn -0.3520 0.9360 0.0000
vn 0.3520 0.9360 -0.0000
vn -0.9973 0.0741 -0.0000
vn -0.9715 0.2370 0.0000
vn 0.9973 0.0741 -0.0000
vn 0.9715 0.2370 -0.0000
vn 0.5189 0.8548 -0.0095
vn 0.0844 0.9964 0.0074
vn 0.2366 0.9716 -0.0063
vn 0.5453 0.8302 0.1158
vn -0.5865 0.8099 -0.0000
vn -0.5920 0.7978 -0.1144
vn -0.7790 0.6263 -0.0299
vn -0.7790 0.6263 0.0299
vn -0.9868 0.0008 -0.1620
vn -1.0000 0.0000 -0.0000
vn -0.9906 0.0000 0.1366
vn -0.9996 -0.0024 0.0291
vn -0.1723 0.0245 0.9847
vn -0.0023 0.0115 0.9999
vn -0.3154 -0.3443 0.8843
vn -0.7364 0.4276 0.5243
vn 0.0346 0.0099 0.9994
vn 0.2130 0.0054 0.9770
vn 0.0080 0.0106 0.9999
vn 0.0594 0.0073 0.9982
vn -0.9995 0.0133 0.0270
vn -0.9998 0.0181 -0.0088
vn -0.9459 -0.0484 0.3208
vn -0.3992 0.8670 0.2982
vn -0.5033 0.3696 0.7811
vn -0.2162 0.0000 0.9764
vn -0.3552 0.4721 0.8068
vn -0.0328 0.0000 0.9995
vn -0.3617 0.0000 0.9323
vn -0.0053 0.0081 -1.0000
vn -0.0000 -0.0000 -1.0000
vn 0.0055 0.0074 -1.0000
vn 0.0308 0.0137 -0.9994
vn -0.0308 0.0137 -0.9994
vn 0.0000 0.0000 1.0000
vn 0.1161 0.1290 0.9848
vn 0.0411 0.0210 0.9989
vn -0.0398 0.0105 0.9992
vn -0.0450 0.0523 0.9976
vn -0.9999 0.0112 -0.0000
vn 0.9999 0.0116 0.0000
vn 0.9999 0.0119 0.0040
vn 0.9999 0.0121 -0.0040
vn 0.7676 0.6402 -0.0304
vn 0.5958 0.7953 -0.1121
vn 0.7847 0.6196 -0.0203
vn -0.0273 0.0136 -0.9995
vn -0.0107 0.2185 -0.9758
vn 0.0897 0.3242 -0.9417
vn 0.0520 0.1451 -0.9880
vn 0.1109 0.0599 -0.9920
vn 0.2130 0.0054 -0.9770
vn 0.3617 -0.0000 -0.9323
vn -0.2130 0.0054 -0.9770
vn -0.3617 -0.0000 -0.9323
vn 0.0897 0.3242 0.9417
vn -0.0107 0.2185 0.9758
vn -0.0361 0.0955 0.9948
vn 0.0650 0.1792 0.9817
vn -0.9604 0.0000 0.2785
vn -0.9868 0.0000 0.1621
vn 0.9604 0.0000 0.2785
vn 0.9879 0.0109 0.1550
vn 0.3617 0.0000 0.9323
vn -0.5920 0.7978 0.1144
vn -0.1611 0.9869 0.0000
vn 0.0844 0.9964 -0.0074
vn 0.2366 0.9716 0.0063
vn -0.2460 0.9603 0.1315
vn -0.2460 0.9603 -0.1315
vn 0.0000 0.0000 -1.0000
vn -0.9604 -0.0000 -0.2785
vn 0.7642 0.6447 -0.0178
vn 0.9998 0.0172 0.0038
vn 0.9873 0.0055 -0.1587
vn 0.9604 -0.0000 -0.2785
# 146 vertex normals

vt 0.9613 -0.0581 0.0000
vt 0.9666 -0.0395 0.0000
vt 0.9538 -0.0164 0.0000
vt 0.7467 -0.9324 0.0000
vt 0.7427 -0.9496 0.0000
vt 0.7579 -0.9741 0.0000
vt 0.7084 -0.1594 0.0000
vt 0.7030 -0.1780 0.0000
vt 0.7159 -0.2011 0.0000
vt 0.4790 -0.9250 0.0000
vt 0.4751 -0.9422 0.0000
vt 0.4903 -0.9666 0.0000
vt 0.9904 -0.7962 0.0000
vt 0.9904 -0.7677 0.0000
vt 0.9007 -0.7723 0.0000
vt 0.9007 -0.7997 0.0000
vt 0.9589 -0.4932 0.0000
vt 0.6992 -0.6360 0.0000
vt 0.6934 -0.7257 0.0000
vt 0.9806 -0.6360 0.0000
vt 0.7228 -0.9598 0.0000
vt 0.6330 -0.8743 0.0000
vt 0.6330 -0.9563 0.0000
vt 0.6330 -0.9837 0.0000
vt 0.7228 -0.9883 0.0000
vt 0.9864 -0.7257 0.0000
vt 0.9512 -0.0409 0.0000
vt 0.7159 -0.0164 0.0000
vt 0.7185 -0.0409 0.0000
vt 0.7084 -0.0581 0.0000
vt 0.7030 -0.0395 0.0000
vt 0.7210 -0.4932 0.0000
vt 0.7579 -0.8125 0.0000
vt 0.7579 -0.7894 0.0000
vt 0.7467 -0.8310 0.0000
vt 0.7427 -0.8138 0.0000
vt 0.7228 -0.7888 0.0000
vt 0.7228 -0.7603 0.0000
vt 0.6330 -0.7649 0.0000
vt 0.6330 -0.7923 0.0000
vt 0.9567 -0.2208 0.0000
vt 0.6970 -0.3636 0.0000
vt 0.6912 -0.4533 0.0000
vt 0.9784 -0.3636 0.0000
vt 0.9904 -0.9672 0.0000
vt 0.9007 -0.8817 0.0000
vt 0.9007 -0.9638 0.0000
vt 0.9007 -0.9911 0.0000
vt 0.9904 -0.9957 0.0000
vt 0.9842 -0.4533 0.0000
vt 0.7185 -0.1766 0.0000
vt 0.9538 -0.2011 0.0000
vt 0.9512 -0.1766 0.0000
vt 0.9613 -0.1594 0.0000
vt 0.9666 -0.1780 0.0000
vt 0.7188 -0.2208 0.0000
vt 0.4903 -0.8050 0.0000
vt 0.4903 -0.7820 0.0000
vt 0.4790 -0.8236 0.0000
vt 0.4751 -0.8064 0.0000
vt 0.4903 -0.9436 0.0000
vt 0.7579 -0.9510 0.0000
vt 0.9503 -0.1087 0.0000
vt 0.7194 -0.1087 0.0000
vt 0.7059 -0.1087 0.0000
vt 0.9638 -0.1087 0.0000
vt 0.7228 -0.8743 0.0000
vt 0.4751 -0.8743 0.0000
vt 0.9904 -0.8817 0.0000
vt 0.7427 -0.8817 0.0000
vt 0.2834 -0.0730 0.0000
vt 0.2095 -0.0193 0.0000
vt 0.2470 -0.0193 0.0000
vt 0.2825 -0.0193 0.0000
vt 0.1355 -0.0730 0.0000
vt 0.1364 -0.1268 0.0000
vt 0.0307 -0.1268 0.0000
vt 0.0307 -0.0193 0.0000
vt 0.5793 -0.2998 0.0000
vt 0.5793 -0.2736 0.0000
vt 0.4757 -0.2474 0.0000
vt 0.4692 -0.2736 0.0000
vt 0.5312 -0.5085 0.0000
vt 0.3706 -0.5343 0.0000
vt 0.5184 -0.5256 0.0000
vt 0.5324 -0.5549 0.0000
vt 0.6409 -0.3625 0.0000
vt 0.6409 -0.3454 0.0000
vt 0.3708 -0.3367 0.0000
vt 0.0610 -0.3635 0.0000
vt 0.3063 -0.2356 0.0000
vt 0.3063 -0.3116 0.0000
vt 0.4556 -0.2322 0.0000
vt 0.5384 -0.5439 0.0000
vt 0.5434 -0.5343 0.0000
vt 0.6409 -0.5256 0.0000
vt 0.5387 -0.5256 0.0000
vt 0.6409 -0.5085 0.0000
vt 0.6409 -0.5343 0.0000
vt 0.2965 -0.7587 0.0000
vt 0.5779 -0.7555 0.0000
vt 0.6309 -0.7097 0.0000
vt 0.2963 -0.5591 0.0000
vt 0.0235 -0.5852 0.0000
vt 0.0235 -0.7326 0.0000
vt 0.0924 -0.3399 0.0000
vt 0.0419 -0.3852 0.0000
vt 0.0599 -0.4097 0.0000
vt 0.0920 -0.5312 0.0000
vt 0.0395 -0.4858 0.0000
vt 0.0249 -0.2356 0.0000
vt 0.0249 -0.3116 0.0000
vt 0.5775 -0.2191 0.0000
vt 0.5775 -0.1431 0.0000
vt 0.2963 -0.1431 0.0000
vt 0.2963 -0.2191 0.0000
vt 0.3777 -0.1268 0.0000
vt 0.2825 -0.1268 0.0000
vt 0.3777 -0.0193 0.0000
vt 0.6414 -0.6850 0.0000
vt 0.6439 -0.6589 0.0000
vt 0.6398 -0.6328 0.0000
vt 0.6299 -0.6328 0.0000
vt 0.6285 -0.6081 0.0000
vt 0.0235 -0.5679 0.0000
vt 0.0235 -0.5591 0.0000
vt 0.0235 -0.7499 0.0000
vt 0.0235 -0.7587 0.0000
vt 0.0307 -0.4097 0.0000
vt 0.0267 -0.4355 0.0000
vt 0.0291 -0.4613 0.0000
vt 0.0405 -0.4097 0.0000
vt 0.4809 -0.2356 0.0000
vt 0.5793 -0.2474 0.0000
vt 0.5793 -0.2356 0.0000
vt 0.0235 -0.1431 0.0000
vt 0.0235 -0.1549 0.0000
vt 0.6409 -0.3367 0.0000
vt 0.1364 -0.0193 0.0000
vt 0.1720 -0.0730 0.0000
vt 0.2095 -0.1268 0.0000
vt 0.2470 -0.1268 0.0000
vt 0.1720 -0.0193 0.0000
vt 0.1720 -0.1268 0.0000
vt 0.5775 -0.5623 0.0000
vt 0.5793 -0.3116 0.0000
vt 0.3349 -0.0193 0.0000
vt 0.0235 -0.1811 0.0000
vt 0.0235 -0.2073 0.0000
vt 0.0235 -0.2191 0.0000
# 150 texture coords

g Object001
usemtl wire_135059008
s 1
f 1/1/1 2/2/2 3/3/3 
f 4/4/4 5/5/5 6/6/6 
f 7/7/7 8/8/8 9/9/9 
f 10/10/10 11/11/11 12/12/12 
f 13/13/13 14/14/14 15/15/15 16/16/16 
f 12/17/17 15/18/18 14/19/19 17/20/20 
f 18/21/21 19/22/22 20/23/23 17/24/24 
f 17/24/24 21/25/25 18/21/21 
f 14/19/19 21/26/26 17/20/20 
f 22/27/27 3/3/3 12/28/28 11/29/29 
f 10/30/30 12/28/28 23/31/31 
f 12/17/17 3/32/32 15/18/18 
f 2/33/33 16/16/16 15/15/15 3/34/34 
f 1/35/35 3/34/34 22/36/36 
f 24/37/37 25/38/38 26/39/39 27/40/40 
f 6/41/41 26/42/42 25/43/43 28/44/44 
f 29/45/45 30/46/46 31/47/47 28/48/48 
f 28/48/48 32/49/49 29/45/45 
f 25/43/43 32/50/50 28/44/44 
f 33/51/51 9/9/9 6/52/52 5/53/53 
f 4/54/54 6/52/52 34/55/55 
f 6/41/41 9/56/56 26/42/42 
f 8/57/57 27/40/40 26/39/39 9/58/58 
f 7/59/59 9/58/58 33/60/60 
f 20/23/23 19/22/22 23/61/61 12/12/12 
f 12/12/12 17/24/24 20/23/23 
f 31/47/47 30/46/46 34/62/62 6/6/6 
f 6/6/6 28/48/48 31/47/47 
f 7/7/7 33/51/51 35/63/63 36/64/64 
f 36/64/64 10/30/30 37/65/65 7/7/7 
f 36/64/64 22/27/27 11/29/29 10/30/30 
f 22/27/27 36/64/64 35/63/63 1/1/1 
f 35/63/63 4/54/54 38/66/66 1/1/1 
f 35/63/63 33/51/51 5/53/53 4/54/54 
f 19/22/22 18/21/21 39/67/67 24/37/37 
f 23/61/61 19/22/22 8/57/57 37/68/68 
f 10/10/10 23/61/61 37/68/68 
f 37/68/68 8/57/57 7/59/59 
f 30/46/46 29/45/45 40/69/69 13/13/13 
f 34/62/62 30/46/46 2/33/33 38/70/70 
f 4/4/4 34/62/62 38/70/70 
f 38/70/70 2/33/33 1/35/35 
f 27/40/40 8/57/57 19/22/22 24/37/37 
f 16/16/16 2/33/33 30/46/46 13/13/13 
f 41/71/71 42/72/72 43/73/73 44/74/74 
f 45/75/75 46/76/76 47/77/77 48/78/78 
f 49/79/79 50/80/80 51/81/81 52/82/82 
f 53/83/83 54/84/84 55/85/85 52/86/86 
f 56/87/87 57/88/88 58/89/89 53/83/83 
f 58/89/89 59/90/90 54/84/84 53/83/83 
f 54/91/91 60/92/92 52/82/82 55/93/93 
f 51/94/94 61/95/95 62/96/96 63/97/97 
f 51/94/94 63/97/97 62/96/96 53/83/83 
f 53/83/83 52/86/86 51/94/94 
f 62/96/96 64/98/98 56/87/87 53/83/83 
f 61/95/95 65/99/99 62/96/96 
f 60/100/100 47/101/101 46/102/101 66/103/102 
f 67/104/103 68/105/104 60/100/100 66/103/102 
f 58/89/89 69/106/105 59/90/90 
f 54/84/84 59/90/90 44/107/106 70/108/107 
f 48/109/108 54/84/84 70/108/107 71/110/109 
f 48/111/110 47/112/110 60/92/92 54/91/91 
f 72/113/111 69/114/111 58/115/112 66/116/113 
f 72/117/114 73/118/115 41/71/71 69/119/116 
f 74/120/117 75/121/118 76/122/119 77/123/120 
f 73/124/121 66/103/102 77/123/120 76/122/119 
f 78/125/122 67/104/103 66/103/102 79/126/123 
f 60/100/100 68/105/104 80/127/124 81/128/125 
f 43/129/126 42/130/127 82/131/128 83/132/129 
f 43/129/126 83/132/129 70/108/107 44/107/106 
f 61/133/130 51/81/81 50/80/80 84/134/131 
f 84/134/131 65/135/130 61/133/130 
f 58/115/112 85/136/132 86/137/133 66/116/113 
f 58/89/89 57/88/88 85/138/134 
f 45/75/75 48/78/78 71/139/135 87/140/136 
f 41/71/71 75/141/137 87/140/136 42/72/72 
f 41/71/71 73/118/115 76/142/138 75/141/137 
f 70/108/107 83/132/129 82/131/128 71/110/109 
f 66/103/102 46/102/101 74/120/117 77/123/120 
f 87/140/136 71/139/135 82/143/139 42/72/72 
f 87/140/136 75/141/137 74/144/140 46/76/76 
f 46/76/76 45/75/75 87/140/136 
f 73/124/121 72/145/141 66/103/102 
f 60/92/92 81/146/142 49/79/79 52/82/82 
f 41/71/71 44/74/74 59/147/143 69/119/116 
f 86/137/133 88/148/144 89/149/145 66/116/113 
f 89/149/145 79/150/146 66/116/113 
# 59 polygons - 28 triangles

